<svg width="184" height="50" viewBox="0 0 184 50" fill="none" xmlns="http://www.w3.org/2000/svg">
<rect width="184" height="49.46" rx="24.73" fill="#2645D6"/>
<path d="M52.4298 12L47.6011 18.8869H55.6991C57.8238 18.8869 59.5475 17.1632 59.5475 15.0384V12H52.4298Z" fill="white"/>
<path d="M38.6032 21.2855C36.4784 21.2855 34.7547 23.0092 34.7547 25.134V28.1724H40.006L43.2205 21.2855H38.6032Z" fill="white"/>
<path fill-rule="evenodd" clip-rule="evenodd" d="M35.4434 37.46C33.5417 37.46 32 35.9182 32 34.0165C32 32.1148 33.5417 30.5731 35.4434 30.5731H38.8869V34.0165C38.8869 35.9182 37.3452 37.46 35.4434 37.46ZM35.4434 35.3939C36.2045 35.3939 36.8208 34.7776 36.8208 34.0165C36.8208 33.2554 36.2045 32.6391 35.4434 32.6391C34.6824 32.6391 34.0661 33.2554 34.0661 34.0165C34.0661 34.7776 34.6824 35.3939 35.4434 35.3939Z" fill="white"/>
<path d="M44.6801 28.1724H41.0899L45.9185 21.2855H48.5285V24.324C48.5285 26.4487 46.8048 28.1724 44.6801 28.1724Z" fill="white"/>
<path d="M47.5542 12H42.7353C40.6105 12 38.8869 13.7237 38.8869 15.8484V18.8869H44.3396L47.5542 12Z" fill="white"/>
<path d="M67.6338 21.2973V23.6823L66.9744 23.6882C64.1551 23.6882 62.3062 24.6801 62.314 27.2705H66.2779V29.6594H62.3062V33.1615H59.6493V27.2705C59.6493 23.469 62.7464 21.2973 66.9744 21.2973H67.6338Z" fill="white"/>
<path fill-rule="evenodd" clip-rule="evenodd" d="M91.4072 22.0682C92.3072 22.5827 93.0135 23.289 93.53 24.191C94.0465 25.0929 94.3048 26.1064 94.3048 27.2314C94.3048 28.3564 94.0465 29.3698 93.53 30.2718C93.0135 31.1737 92.3052 31.882 91.4072 32.3946C90.5072 32.9091 89.4976 33.1654 88.3707 33.1654C87.2438 33.1654 86.2303 32.9091 85.3264 32.3946C84.4225 31.88 83.7142 31.1737 83.2036 30.2718C82.6929 29.3698 82.4366 28.3564 82.4366 27.2314C82.4366 26.1064 82.6929 25.0929 83.2036 24.191C83.7162 23.289 84.4225 22.5827 85.3264 22.0682C86.2303 21.5536 87.2457 21.2973 88.3707 21.2973C89.4957 21.2973 90.5092 21.5556 91.4072 22.0682ZM90.1237 30.3207C90.6559 30.0174 91.0726 29.5987 91.3778 29.0666C91.6831 28.5344 91.8357 27.9357 91.8357 27.2705C91.8357 26.6053 91.6831 26.0066 91.3778 25.4744C91.0726 24.9423 90.6539 24.5236 90.1237 24.2203C89.5916 23.9171 88.9948 23.7645 88.3296 23.7645C87.6644 23.7645 87.0657 23.9171 86.5316 24.2203C85.9975 24.5236 85.5788 24.9423 85.2775 25.4744C84.9762 26.0066 84.8255 26.6053 84.8255 27.2705C84.8255 27.9357 84.9762 28.5344 85.2775 29.0666C85.5807 29.5987 85.9975 30.0174 86.5316 30.3207C87.0657 30.6259 87.6644 30.7766 88.3296 30.7766C88.9948 30.7766 89.5935 30.624 90.1237 30.3207Z" fill="white"/>
<path d="M141.394 23.3653C141.165 23.6021 140.869 23.7195 140.506 23.7195V23.7234C140.142 23.7234 139.846 23.6079 139.617 23.3751C139.388 23.1423 139.275 22.8566 139.275 22.5123C139.275 22.168 139.388 21.8823 139.617 21.6495C139.846 21.4167 140.142 21.3012 140.506 21.3012C140.869 21.3012 141.165 21.4128 141.394 21.6358C141.623 21.8569 141.736 22.1347 141.736 22.4693C141.736 22.8293 141.623 23.1286 141.394 23.3653Z" fill="white"/>
<path d="M123.552 24.5745C123.005 24.5745 122.502 24.6605 122.038 24.8347C121.576 25.0068 121.181 25.2573 120.856 25.5821L120.837 21.3051H118.378L118.397 33.1635H120.856V28.9805C120.856 28.2253 121.04 27.6559 121.408 27.2744C121.776 26.891 122.269 26.7012 122.891 26.7012C123.449 26.7012 123.873 26.8655 124.169 27.1962C124.462 27.5268 124.611 28.0277 124.611 28.6988V33.1655H127.07V28.3212C127.07 27.0846 126.747 26.1514 126.1 25.5214C125.452 24.8914 124.605 24.5784 123.552 24.5784V24.5745Z" fill="white"/>
<path d="M115.212 27.5894C114.772 26.8088 114.134 26.4175 113.304 26.4175C112.663 26.4175 112.132 26.6288 111.712 27.0514C111.291 27.474 111.082 28.0492 111.082 28.777C111.082 29.5048 111.291 30.0801 111.712 30.5027C112.132 30.9253 112.663 31.1366 113.304 31.1366C114.144 31.1366 114.781 30.7453 115.212 29.9646L117.12 31.0094C116.814 31.6844 116.329 32.2126 115.662 32.5922C114.995 32.9718 114.224 33.1615 113.32 33.1615C112.416 33.1615 111.604 32.9757 110.884 32.6C110.164 32.2263 109.603 31.7059 109.198 31.0407C108.793 30.3755 108.591 29.6203 108.591 28.777C108.591 27.9338 108.793 27.1786 109.198 26.5134C109.601 25.8481 110.164 25.3297 110.884 24.954C111.604 24.5803 112.426 24.3925 113.32 24.3925C114.214 24.3925 114.995 24.5803 115.662 24.954C116.329 25.3277 116.814 25.8638 117.12 26.5603L115.212 27.5894Z" fill="white"/>
<path fill-rule="evenodd" clip-rule="evenodd" d="M132.683 24.4258C133.767 24.4258 134.613 24.7681 135.223 25.451V24.5529H137.682V33.1635H135.333V32.06C134.722 32.7957 133.84 33.1635 132.683 33.1635C131.885 33.1635 131.163 32.9854 130.516 32.6274C129.868 32.2694 129.361 31.7587 128.993 31.0974C128.626 30.4342 128.442 29.6672 128.442 28.7946C128.442 27.922 128.626 27.1551 128.993 26.4918C129.361 25.8286 129.87 25.3199 130.516 24.9618C131.161 24.6038 131.885 24.4258 132.683 24.4258ZM133.11 31.1444C133.73 31.1444 134.245 30.9331 134.656 30.5066C135.065 30.082 135.27 29.5107 135.27 28.7966C135.27 28.0825 135.066 27.5131 134.656 27.0866C134.245 26.662 133.74 26.4488 133.11 26.4488C132.48 26.4488 131.96 26.6601 131.549 27.0866C131.14 27.5112 130.934 28.0825 130.934 28.7966C130.934 29.5107 131.138 30.082 131.549 30.5066C131.96 30.9311 132.49 31.1444 133.11 31.1444Z" fill="white"/>
<path d="M141.734 24.4864H139.275V33.1615H141.734V24.4864Z" fill="white"/>
<path d="M151.03 25.3062C150.382 24.6762 149.535 24.3592 148.482 24.3592C147.903 24.3592 147.373 24.4571 146.89 24.6508C146.406 24.8445 146.001 25.1203 145.677 25.4784V24.4845H143.327V33.1596H145.786V28.7731C145.786 28.0159 145.97 27.4466 146.338 27.0631C146.706 26.6797 147.199 26.4879 147.821 26.4879C148.379 26.4879 148.803 26.6542 149.099 26.9849C149.392 27.3155 149.541 27.8183 149.541 28.4914V33.1615H152V28.1118C152 26.8714 151.677 25.9362 151.03 25.3042V25.3062Z" fill="white"/>
<path fill-rule="evenodd" clip-rule="evenodd" d="M80.0751 24.191C79.5586 23.289 78.8523 22.5827 77.9523 22.0682C77.0543 21.5556 76.0408 21.2973 74.9158 21.2973C73.7909 21.2973 72.7754 21.5536 71.8715 22.0682C70.9676 22.5827 70.2613 23.289 69.7487 24.191C69.2381 25.0929 68.9818 26.1064 68.9818 27.2314C68.9818 28.3564 69.2381 29.3698 69.7487 30.2718C70.2594 31.1737 70.9676 31.88 71.8715 32.3946C72.7754 32.9091 73.7889 33.1654 74.9158 33.1654C76.0428 33.1654 77.0523 32.9091 77.9523 32.3946C78.8504 31.882 79.5586 31.1737 80.0751 30.2718C80.5917 29.3698 80.8499 28.3564 80.8499 27.2314C80.8499 26.1064 80.5917 25.0929 80.0751 24.191ZM77.923 29.0666C77.6178 29.5987 77.201 30.0174 76.6689 30.3207C76.1387 30.624 75.54 30.7766 74.8748 30.7766C74.2096 30.7766 73.6109 30.6259 73.0767 30.3207C72.5426 30.0174 72.1259 29.5987 71.8226 29.0666C71.5213 28.5344 71.3707 27.9357 71.3707 27.2705C71.3707 26.6053 71.5213 26.0066 71.8226 25.4744C72.1239 24.9423 72.5426 24.5236 73.0767 24.2203C73.6109 23.9171 74.2096 23.7645 74.8748 23.7645C75.54 23.7645 76.1367 23.9171 76.6689 24.2203C77.1991 24.5236 77.6178 24.9423 77.923 25.4744C78.2282 26.0066 78.3808 26.6053 78.3808 27.2705C78.3808 27.9357 78.2282 28.5344 77.923 29.0666Z" fill="white"/>
<path fill-rule="evenodd" clip-rule="evenodd" d="M106.234 24.1147C105.723 23.2225 105.009 22.5299 104.089 22.0388C103.17 21.5477 102.111 21.3012 100.912 21.3012H95.8974V33.1615H100.912C102.111 33.1615 103.17 32.915 104.089 32.4239C105.009 31.9329 105.723 31.2403 106.234 30.3481C106.744 29.4559 106.999 28.417 106.999 27.2314C106.999 26.0457 106.744 25.0068 106.234 24.1147ZM103.291 31.7822H101.871V29.002H99.0552V28.9961H97.6347V22.6806H99.0552V27.5816H103.291V31.7822ZM103.291 26.1651H101.871V22.6845H103.291V26.1651Z" fill="white"/>
</svg>
