<svg width="118" height="56" viewBox="0 0 118 56" fill="none" xmlns="http://www.w3.org/2000/svg">
<path d="M0 0H14.699L12.9173 4.90497H4.89966V9.80994H11.1356L9.3539 14.7149H4.89966V24.5248H0V0Z" fill="white"/>
<path d="M22.0485 0H17.1488V14.7149C17.1488 20.1328 21.5361 24.5248 26.9481 24.5248C32.3601 24.5248 36.7474 20.1328 36.7474 14.7149V0H31.8478V14.7149C31.8478 17.4238 29.6541 19.6199 26.9481 19.6199C24.2421 19.6199 22.0485 17.4238 22.0485 14.7149V0Z" fill="white"/>
<path d="M39.1973 0H58.7959L57.0142 4.90497H51.4464V24.5248H46.5468V4.90497H39.1973L39.1973 0Z" fill="white"/>
<path d="M61.2457 0H66.1454V14.7149C66.1454 17.4238 68.3391 19.6199 71.0451 19.6199C73.7511 19.6199 75.9447 17.4238 75.9447 14.7149V0H80.8444V14.7149C80.8444 20.1328 76.4571 24.5248 71.0451 24.5248C65.633 24.5248 61.2457 20.1328 61.2457 14.7149V0Z" fill="white"/>
<path d="M102.893 0V24.5248H115.81L117.592 19.6199H107.793V14.7149H111.467L113.249 9.80994H107.793V4.90497H115.81L117.592 0H102.893Z" fill="white"/>
<path d="M95.5434 24.5248L91.98 15.6067H88.1939V24.5248H83.2942V0H88.1939V10.7017H92.6481C94.2471 10.7017 95.5434 9.4041 95.5434 7.80336C95.5434 6.20262 94.2471 4.90497 92.6481 4.90497V0C96.9531 0 100.443 3.49368 100.443 7.80336C100.443 10.7195 98.8451 13.2621 96.478 14.6015L100.443 24.5248H95.5434Z" fill="white"/>
<path d="M33.1841 30.7675H47.883L46.1013 35.6725H38.0837V40.5775H43.5402L41.7585 45.4824H38.0837V50.3874H47.883L46.1013 55.2924H33.1841V30.7675Z" fill="white"/>
<path d="M89.4188 30.7675V55.2924H102.336L104.118 50.3874H94.3185V45.4824H97.9932L99.7749 40.5775H94.3185V35.6725H102.336L104.118 30.7675H89.4188Z" fill="white"/>
<path d="M50.3329 30.5286H55.2325V55.2924H50.3329V30.5286Z" fill="white"/>
<path d="M67.4817 30.5286H62.582V36.3414L67.4817 49.83V30.5286Z" fill="white"/>
<path d="M20.9349 30.6561H30.0661L28.2844 35.561H20.9349C19.5512 35.561 18.4851 36.684 18.4851 38.0692C18.4851 39.4545 19.5512 40.5775 20.9349 40.5775H23.3847C27.4745 40.5775 30.7342 43.8965 30.7342 47.9907C30.7342 52.0848 27.4745 55.4038 23.3847 55.4038H14.2536L16.0353 50.4989H23.3847C24.7685 50.4989 25.8346 49.3759 25.8346 47.9907C25.8346 46.6054 24.7685 45.4824 23.3847 45.4824H20.9349C16.8451 45.4824 13.5854 42.1634 13.5854 38.0692C13.5854 33.975 16.8451 30.6561 20.9349 30.6561Z" fill="white"/>
<path d="M86.4122 30.6561H77.281C73.1912 30.6561 69.9315 33.975 69.9315 38.0692C69.9315 42.1634 73.1912 45.4824 77.281 45.4824H79.7308C81.1146 45.4824 82.1807 46.6054 82.1807 47.9907C82.1807 49.3759 81.1146 50.4989 79.7308 50.4989H72.3813L70.5996 55.4038H79.7308C83.8206 55.4038 87.0803 52.0848 87.0803 47.9907C87.0803 43.8965 83.8206 40.5775 79.7308 40.5775H77.281C75.8972 40.5775 74.8312 39.4545 74.8312 38.0692C74.8312 36.684 75.8972 35.561 77.281 35.561H84.6305L86.4122 30.6561Z" fill="white"/>
<path d="M50.5891 30.5286H55.4037L64.4492 55.4038H59.6346L50.5891 30.5286Z" fill="#CBCEDD"/>
</svg>
